<svg width="113" height="106" viewBox="0 0 113 106" fill="none" xmlns="http://www.w3.org/2000/svg">
<path d="M14.9358 88.6529C5.0913 76.849 -4.62299 57.2722 2.664 34.733C5.56075 25.7731 12.664 19.0174 20.4097 13.6626L26.3924 9.52662C36.4491 2.57415 48.7635 -0.316801 60.8634 1.43414C80.3202 4.24969 96.1436 18.5497 100.908 37.6233L103 46L111.189 67.5554C112.306 70.4939 112.878 73.6111 112.878 76.7546C112.878 89.7924 103.187 100.798 90.2542 102.449L69.1626 105.14C63.902 105.811 58.568 105.642 53.3604 104.639L43.0444 102.652C32.4186 100.605 21.8666 96.9633 14.9358 88.6529Z" fill="#DDDBDB"/>
</svg>
